<svg width="880" height="582" viewBox="0 0 880 582" fill="none" xmlns="http://www.w3.org/2000/svg">
<g id="undraw_Mobile_application_mr4r 1" clip-path="url(#clip0)">
<path id="Vector" d="M643 581.351C618.682 577.544 595.302 574.306 572.857 571.636L581.5 554.351C578.5 553.351 565.5 563.351 565.5 563.351L576.5 513.351C561.5 515.351 554.5 566.351 554.5 566.351L537.5 549.351L545.868 568.598C477.187 561.381 417.922 559.129 368.103 559.645L375.5 544.851C372.5 543.851 359.5 553.851 359.5 553.851L370.5 503.851C355.5 505.851 348.5 556.851 348.5 556.851L331.5 539.851L340.363 560.236C306.238 561.228 272.185 563.97 238.341 568.452C245.722 545.456 271.5 523.351 271.5 523.351C251.679 529.517 241.368 539.563 236.031 548.875C234.951 501.631 242.219 454.568 257.5 409.851C257.5 409.851 217.5 499.851 223.5 559.851L224.261 570.509C189.462 575.937 172 581.351 172 581.351H643Z" fill="#3F3D56"/>
<path id="Vector_2" d="M553.475 133.76V199.44C553.473 200.047 553.232 200.628 552.802 201.057C552.373 201.487 551.792 201.728 551.185 201.73H549.555V543.88C549.555 553.348 545.793 562.428 539.098 569.123C532.403 575.818 523.323 579.58 513.855 579.58H300.065C295.378 579.58 290.736 578.656 286.405 576.861C282.075 575.067 278.14 572.437 274.826 569.122C271.512 565.807 268.883 561.872 267.09 557.541C265.297 553.21 264.374 548.568 264.375 543.88V213.73H263.195C262.767 213.731 262.356 213.562 262.052 213.26C261.749 212.958 261.577 212.548 261.575 212.12V174.74C261.575 174.527 261.617 174.317 261.698 174.12C261.78 173.923 261.899 173.745 262.049 173.594C262.2 173.444 262.378 173.325 262.575 173.243C262.772 173.162 262.982 173.12 263.195 173.12H264.375V159.04H263.185C262.736 159.038 262.305 158.858 261.988 158.54C261.672 158.221 261.494 157.789 261.495 157.34V120.47C261.496 120.022 261.675 119.593 261.991 119.276C262.308 118.96 262.737 118.781 263.185 118.78H264.375V99.56H263.165C262.968 99.5603 262.773 99.5217 262.591 99.4464C262.409 99.3711 262.243 99.2606 262.104 99.1213C261.964 98.9819 261.854 98.8165 261.779 98.6344C261.703 98.4523 261.665 98.2571 261.665 98.06V77.94C261.664 77.541 261.822 77.1579 262.103 76.8748C262.384 76.5917 262.766 76.4318 263.165 76.43H264.375V35.69C264.375 26.2245 268.136 17.1469 274.829 10.4538C281.522 3.76067 290.6 0.000375276 300.065 3.05179e-05H513.855C523.322 -1.22739e-05 532.4 3.75984 539.095 10.4527C545.79 17.1456 549.552 26.2235 549.555 35.69V131.47H551.185C551.792 131.472 552.373 131.713 552.802 132.143C553.232 132.572 553.473 133.153 553.475 133.76Z" fill="#3F3D56"/>
<path id="Vector_3" d="M417.26 18.3068H382.521C381.117 18.3068 379.979 19.4448 379.979 20.8487V23.8513C379.979 25.2552 381.117 26.3932 382.521 26.3932H417.26C418.664 26.3932 419.802 25.2552 419.802 23.8513V20.8487C419.802 19.4448 418.664 18.3068 417.26 18.3068Z" fill="#E6E8EC"/>
<path id="Vector_4" d="M430.41 26.9366C432.943 26.9366 434.997 24.8831 434.997 22.35C434.997 19.8169 432.943 17.7633 430.41 17.7633C427.877 17.7633 425.823 19.8169 425.823 22.35C425.823 24.8831 427.877 26.9366 430.41 26.9366Z" fill="#E6E8EC"/>
<path id="Vector_5" d="M532.46 42.7505V546.841C532.463 550.118 531.753 553.357 530.378 556.333C529.004 559.308 526.998 561.948 524.5 564.071C520.402 567.563 515.194 569.481 509.81 569.481H305.16C301.519 569.486 297.93 568.611 294.7 566.931C293.941 566.542 293.206 566.108 292.5 565.631C289.424 563.555 286.905 560.757 285.163 557.481C283.421 554.205 282.51 550.551 282.51 546.841V42.7505C282.51 39.776 283.096 36.8307 284.234 34.0826C285.372 31.3345 287.04 28.8375 289.144 26.7343C291.247 24.631 293.744 22.9626 296.492 21.8244C299.24 20.6861 302.186 20.1004 305.16 20.1005H335.79V24.0305C335.79 28.9768 337.755 33.7205 341.253 37.218C344.75 40.7156 349.494 42.6805 354.44 42.6805H458.52C463.466 42.6805 468.21 40.7156 471.708 37.218C475.205 33.7205 477.17 28.9768 477.17 24.0305V20.1005H509.81C512.785 20.0996 515.73 20.6848 518.479 21.8227C521.227 22.9606 523.725 24.629 525.828 26.7324C527.932 28.8358 529.6 31.3331 530.738 34.0816C531.876 36.8301 532.461 39.7758 532.46 42.7505Z" fill="#6C63FF"/>
<g id="ray-3">
<path id="Vector_6" opacity="0.3" d="M532.46 474.681V546.841C532.463 550.118 531.753 553.357 530.378 556.333C529.004 559.308 526.998 561.948 524.5 564.071C520.402 567.563 515.194 569.481 509.81 569.481H305.16C301.519 569.486 297.93 568.611 294.7 566.931C293.941 566.542 293.206 566.108 292.5 565.631C289.424 563.555 286.905 560.757 285.163 557.481C283.421 554.205 282.51 550.551 282.51 546.841V474.711C316.826 443.864 361.337 426.796 407.479 426.791C453.622 426.785 498.136 443.842 532.46 474.681Z" fill="white"/>
</g>
<g id="ray-2">
<path id="Vector_7" opacity="0.3" d="M520.29 566.911C517.058 568.608 513.461 569.49 509.81 569.481H305.16C301.519 569.486 297.93 568.611 294.7 566.931C303.965 544.649 319.621 525.61 339.694 512.216C359.767 498.822 383.357 491.673 407.488 491.671C431.62 491.668 455.211 498.813 475.286 512.204C495.362 525.594 511.021 544.63 520.29 566.911Z" fill="white"/>
</g>
<g id="ray-1">
<path id="Vector_8" opacity="0.3" d="M475.75 568.12C473.794 569.147 471.617 569.681 469.408 569.675H345.57C343.366 569.679 341.195 569.149 339.24 568.132C344.846 554.649 354.32 543.128 366.467 535.023C378.614 526.918 392.889 522.592 407.491 522.591C422.093 522.589 436.369 526.913 448.517 535.016C460.665 543.119 470.141 554.638 475.75 568.12Z" fill="white"/>
</g>
<g id="middle">
<path id="Vector_9" opacity="0.3" d="M282.453 195.961C282.453 195.961 351.453 179.248 399.453 202.131C447.453 225.013 532.453 201.961 532.453 201.961" fill="white"/>
<g id="Group 2">
<g id="Group 1">
<path id="Vector_10" d="M459.499 213.861C438.97 213.861 416.44 209.951 398.853 196.761C374.365 178.395 344.196 179.375 323.199 183.432C309.252 186.15 295.715 190.659 282.925 196.847L282 195.074C294.947 188.805 308.649 184.235 322.768 181.479C344.177 177.335 374.964 176.345 400.053 195.161C447.052 230.41 531.21 198.751 532.054 198.429L532.771 200.296C516.989 205.921 500.666 209.895 484.065 212.153C475.923 213.263 467.716 213.834 459.499 213.861Z" fill="white"/>
<path id="Vector_11" opacity="0.3" d="M347.594 221.922C339.258 221.884 330.946 221.054 322.768 219.443C308.649 216.686 294.947 212.117 282 205.847L282.925 204.074C295.715 210.263 309.252 214.772 323.199 217.489C344.195 221.546 374.365 222.526 398.853 204.161C423.919 185.361 459.03 185.414 484.065 188.769C500.666 191.027 516.989 195 532.771 200.626L532.054 202.493C531.209 202.169 447.053 170.51 400.053 205.761C383.601 218.1 364.696 221.922 347.594 221.922Z" fill="white"/>
<path id="Vector_12" opacity="0.3" d="M347.934 213.869C313.299 213.869 282.543 201.444 282.082 201.254L282.843 199.404C283.528 199.686 351.932 227.304 398.943 199.469C446.768 171.149 531.849 196.428 532.703 196.686L532.123 198.6C531.278 198.345 447.03 173.319 399.962 201.189C383.899 210.7 365.421 213.869 347.934 213.869Z" fill="white"/>
<path id="Vector_13" opacity="0.3" d="M282.463 198.791C282.463 198.791 351.453 221.673 399.453 198.791C447.453 175.909 532.413 196.629 532.413 196.629" fill="white"/>
<path id="Vector_14" opacity="0.3" d="M282.463 195.961C282.463 195.961 351.453 159.961 399.453 195.961C447.453 231.961 532.413 199.362 532.413 199.362" fill="white"/>
</g>
</g>
</g>
<g id="sun">
<path id="Vector_15" d="M407.75 563.675C413.825 563.675 418.75 558.75 418.75 552.675C418.75 546.6 413.825 541.675 407.75 541.675C401.675 541.675 396.75 546.6 396.75 552.675C396.75 558.75 401.675 563.675 407.75 563.675Z" fill="white"/>
</g>
</g>
<defs>
<clipPath id="clip0">
<rect width="879.5" height="581.351" fill="white"/>
</clipPath>
</defs>
</svg>
